<mxfile host="app.diagrams.net" agent="Mozilla/5.0 (X11; Linux x86_64; rv:132.0) Gecko/20100101 Firefox/132.0" version="24.8.3">
  <diagram name="Page-1" id="S-LyKqBnEukVfjIJMp-r">
    <mxGraphModel dx="668" dy="1240" grid="1" gridSize="5" guides="1" tooltips="1" connect="1" arrows="1" fold="1" page="1" pageScale="1" pageWidth="850" pageHeight="1100" math="0" shadow="0">
      <root>
        <mxCell id="0" />
        <mxCell id="1" parent="0" />
        <mxCell id="EWJrujR4eEeGzNGpfqsX-17" value="" style="group" parent="1" vertex="1" connectable="0">
          <mxGeometry x="80" y="230" width="320" height="320" as="geometry" />
        </mxCell>
        <mxCell id="EWJrujR4eEeGzNGpfqsX-3" value="" style="rounded=1;whiteSpace=wrap;html=1;" parent="EWJrujR4eEeGzNGpfqsX-17" vertex="1">
          <mxGeometry x="10" width="310" height="143.08943089430895" as="geometry" />
        </mxCell>
        <mxCell id="EWJrujR4eEeGzNGpfqsX-4" value="bridge1" style="rounded=1;whiteSpace=wrap;html=1;" parent="EWJrujR4eEeGzNGpfqsX-17" vertex="1">
          <mxGeometry x="45" y="81.54" width="232.5" height="28.46" as="geometry" />
        </mxCell>
        <mxCell id="EWJrujR4eEeGzNGpfqsX-9" style="edgeStyle=orthogonalEdgeStyle;rounded=0;orthogonalLoop=1;jettySize=auto;html=1;exitX=0.5;exitY=1;exitDx=0;exitDy=0;entryX=0.5;entryY=0;entryDx=0;entryDy=0;endArrow=none;endFill=0;strokeColor=#FFFFFF;" parent="EWJrujR4eEeGzNGpfqsX-17" source="EWJrujR4eEeGzNGpfqsX-1" target="EWJrujR4eEeGzNGpfqsX-7" edge="1">
          <mxGeometry relative="1" as="geometry" />
        </mxCell>
        <mxCell id="EWJrujR4eEeGzNGpfqsX-12" value="10.2" style="edgeLabel;html=1;align=center;verticalAlign=middle;resizable=0;points=[];" parent="EWJrujR4eEeGzNGpfqsX-9" vertex="1" connectable="0">
          <mxGeometry x="0.8069" relative="1" as="geometry">
            <mxPoint x="-3" y="-2" as="offset" />
          </mxGeometry>
        </mxCell>
        <mxCell id="EWJrujR4eEeGzNGpfqsX-13" value="10.1" style="edgeLabel;html=1;align=center;verticalAlign=middle;resizable=0;points=[];" parent="EWJrujR4eEeGzNGpfqsX-9" vertex="1" connectable="0">
          <mxGeometry x="-0.7276" y="-1" relative="1" as="geometry">
            <mxPoint x="-3" as="offset" />
          </mxGeometry>
        </mxCell>
        <mxCell id="EWJrujR4eEeGzNGpfqsX-1" value="ether1" style="rounded=1;whiteSpace=wrap;html=1;" parent="EWJrujR4eEeGzNGpfqsX-17" vertex="1">
          <mxGeometry x="45" y="110" width="60" height="33.09" as="geometry" />
        </mxCell>
        <mxCell id="EWJrujR4eEeGzNGpfqsX-10" style="edgeStyle=orthogonalEdgeStyle;rounded=0;orthogonalLoop=1;jettySize=auto;html=1;exitX=0.5;exitY=1;exitDx=0;exitDy=0;entryX=0.5;entryY=0;entryDx=0;entryDy=0;endArrow=none;endFill=0;strokeColor=#FFFFFF;" parent="EWJrujR4eEeGzNGpfqsX-17" source="EWJrujR4eEeGzNGpfqsX-2" target="EWJrujR4eEeGzNGpfqsX-8" edge="1">
          <mxGeometry relative="1" as="geometry" />
        </mxCell>
        <mxCell id="EWJrujR4eEeGzNGpfqsX-15" value="20.1" style="edgeLabel;html=1;align=center;verticalAlign=middle;resizable=0;points=[];" parent="EWJrujR4eEeGzNGpfqsX-10" vertex="1" connectable="0">
          <mxGeometry x="-0.6889" relative="1" as="geometry">
            <mxPoint x="-4" y="3" as="offset" />
          </mxGeometry>
        </mxCell>
        <mxCell id="EWJrujR4eEeGzNGpfqsX-16" value="20.2" style="edgeLabel;html=1;align=center;verticalAlign=middle;resizable=0;points=[];" parent="EWJrujR4eEeGzNGpfqsX-10" vertex="1" connectable="0">
          <mxGeometry x="0.6377" relative="1" as="geometry">
            <mxPoint x="-4" y="-1" as="offset" />
          </mxGeometry>
        </mxCell>
        <mxCell id="EWJrujR4eEeGzNGpfqsX-2" value="ether2" style="rounded=1;whiteSpace=wrap;html=1;" parent="EWJrujR4eEeGzNGpfqsX-17" vertex="1">
          <mxGeometry x="215" y="143.08943089430895" width="60" height="39.02439024390243" as="geometry" />
        </mxCell>
        <mxCell id="EWJrujR4eEeGzNGpfqsX-5" value="M2" style="rounded=1;whiteSpace=wrap;html=1;" parent="EWJrujR4eEeGzNGpfqsX-17" vertex="1">
          <mxGeometry y="240" width="150" height="68.29" as="geometry" />
        </mxCell>
        <mxCell id="EWJrujR4eEeGzNGpfqsX-6" value="M3" style="rounded=1;whiteSpace=wrap;html=1;" parent="EWJrujR4eEeGzNGpfqsX-17" vertex="1">
          <mxGeometry x="170" y="239.9973170731707" width="150" height="68.29268292682927" as="geometry" />
        </mxCell>
        <mxCell id="EWJrujR4eEeGzNGpfqsX-7" value="ether1" style="rounded=1;whiteSpace=wrap;html=1;" parent="EWJrujR4eEeGzNGpfqsX-17" vertex="1">
          <mxGeometry x="45" y="212.68" width="60" height="27.32" as="geometry" />
        </mxCell>
        <mxCell id="EWJrujR4eEeGzNGpfqsX-8" value="ether1" style="rounded=1;whiteSpace=wrap;html=1;" parent="EWJrujR4eEeGzNGpfqsX-17" vertex="1">
          <mxGeometry x="215" y="212.68" width="60" height="27.32" as="geometry" />
        </mxCell>
        <mxCell id="EWJrujR4eEeGzNGpfqsX-19" value="Why is this working?" style="text;html=1;align=center;verticalAlign=middle;whiteSpace=wrap;rounded=0;" parent="EWJrujR4eEeGzNGpfqsX-17" vertex="1">
          <mxGeometry x="72.5" width="185" height="30" as="geometry" />
        </mxCell>
        <mxCell id="EWJrujR4eEeGzNGpfqsX-20" style="edgeStyle=orthogonalEdgeStyle;rounded=1;orthogonalLoop=1;jettySize=auto;html=1;strokeColor=#66FF66;elbow=vertical;startArrow=oval;startFill=1;curved=0;exitX=0.5;exitY=0;exitDx=0;exitDy=0;flowAnimation=1;endArrow=oval;endFill=1;entryX=0.5;entryY=0;entryDx=0;entryDy=0;" parent="EWJrujR4eEeGzNGpfqsX-17" source="EWJrujR4eEeGzNGpfqsX-7" target="EWJrujR4eEeGzNGpfqsX-8" edge="1">
          <mxGeometry relative="1" as="geometry">
            <Array as="points">
              <mxPoint x="75" y="105" />
              <mxPoint x="245" y="105" />
            </Array>
            <mxPoint x="80" y="170" as="sourcePoint" />
            <mxPoint x="260" y="190" as="targetPoint" />
          </mxGeometry>
        </mxCell>
        <mxCell id="EWJrujR4eEeGzNGpfqsX-22" value="" style="group" parent="1" vertex="1" connectable="0">
          <mxGeometry x="424" y="230" width="345" height="320" as="geometry" />
        </mxCell>
        <mxCell id="EWJrujR4eEeGzNGpfqsX-23" value="" style="rounded=1;whiteSpace=wrap;html=1;" parent="EWJrujR4eEeGzNGpfqsX-22" vertex="1">
          <mxGeometry x="10" width="310" height="143.08943089430895" as="geometry" />
        </mxCell>
        <mxCell id="TltHTOF5UY6wrQ0CbbNr-3" value="&lt;div&gt;bridge/vlan&lt;/div&gt;" style="rounded=1;whiteSpace=wrap;html=1;" vertex="1" parent="EWJrujR4eEeGzNGpfqsX-22">
          <mxGeometry x="45" y="80" width="235" height="30" as="geometry" />
        </mxCell>
        <mxCell id="EWJrujR4eEeGzNGpfqsX-25" style="edgeStyle=orthogonalEdgeStyle;rounded=0;orthogonalLoop=1;jettySize=auto;html=1;exitX=0.5;exitY=1;exitDx=0;exitDy=0;entryX=0.5;entryY=0;entryDx=0;entryDy=0;endArrow=none;endFill=0;strokeColor=#FFFFFF;" parent="EWJrujR4eEeGzNGpfqsX-22" source="EWJrujR4eEeGzNGpfqsX-28" target="EWJrujR4eEeGzNGpfqsX-35" edge="1">
          <mxGeometry relative="1" as="geometry" />
        </mxCell>
        <mxCell id="EWJrujR4eEeGzNGpfqsX-26" value="10.2" style="edgeLabel;html=1;align=center;verticalAlign=middle;resizable=0;points=[];" parent="EWJrujR4eEeGzNGpfqsX-25" vertex="1" connectable="0">
          <mxGeometry x="0.8069" relative="1" as="geometry">
            <mxPoint y="-2" as="offset" />
          </mxGeometry>
        </mxCell>
        <mxCell id="EWJrujR4eEeGzNGpfqsX-27" value="10.1" style="edgeLabel;html=1;align=center;verticalAlign=middle;resizable=0;points=[];" parent="EWJrujR4eEeGzNGpfqsX-25" vertex="1" connectable="0">
          <mxGeometry x="-0.7276" y="-1" relative="1" as="geometry">
            <mxPoint as="offset" />
          </mxGeometry>
        </mxCell>
        <mxCell id="EWJrujR4eEeGzNGpfqsX-28" value="ether1" style="rounded=1;whiteSpace=wrap;html=1;" parent="EWJrujR4eEeGzNGpfqsX-22" vertex="1">
          <mxGeometry x="45" y="110" width="60" height="33.09" as="geometry" />
        </mxCell>
        <mxCell id="EWJrujR4eEeGzNGpfqsX-29" style="edgeStyle=orthogonalEdgeStyle;rounded=0;orthogonalLoop=1;jettySize=auto;html=1;exitX=0.5;exitY=1;exitDx=0;exitDy=0;entryX=0.5;entryY=0;entryDx=0;entryDy=0;endArrow=none;endFill=0;strokeColor=#FFFFFF;" parent="EWJrujR4eEeGzNGpfqsX-22" source="EWJrujR4eEeGzNGpfqsX-32" target="EWJrujR4eEeGzNGpfqsX-36" edge="1">
          <mxGeometry relative="1" as="geometry" />
        </mxCell>
        <mxCell id="EWJrujR4eEeGzNGpfqsX-30" value="20.1" style="edgeLabel;html=1;align=center;verticalAlign=middle;resizable=0;points=[];" parent="EWJrujR4eEeGzNGpfqsX-29" vertex="1" connectable="0">
          <mxGeometry x="-0.6889" relative="1" as="geometry">
            <mxPoint x="-3" y="-1" as="offset" />
          </mxGeometry>
        </mxCell>
        <mxCell id="EWJrujR4eEeGzNGpfqsX-31" value="20.2" style="edgeLabel;html=1;align=center;verticalAlign=middle;resizable=0;points=[];" parent="EWJrujR4eEeGzNGpfqsX-29" vertex="1" connectable="0">
          <mxGeometry x="0.6377" relative="1" as="geometry">
            <mxPoint x="-3" y="1" as="offset" />
          </mxGeometry>
        </mxCell>
        <mxCell id="EWJrujR4eEeGzNGpfqsX-32" value="ether2" style="rounded=1;whiteSpace=wrap;html=1;" parent="EWJrujR4eEeGzNGpfqsX-22" vertex="1">
          <mxGeometry x="215" y="110" width="60" height="33" as="geometry" />
        </mxCell>
        <mxCell id="EWJrujR4eEeGzNGpfqsX-33" value="&lt;div&gt;&lt;br&gt;&lt;/div&gt;&lt;div&gt;M2&lt;/div&gt;" style="rounded=1;whiteSpace=wrap;html=1;" parent="EWJrujR4eEeGzNGpfqsX-22" vertex="1">
          <mxGeometry y="240" width="150" height="68.29" as="geometry" />
        </mxCell>
        <mxCell id="EWJrujR4eEeGzNGpfqsX-34" value="&lt;br&gt;&lt;div&gt;M3&lt;/div&gt;" style="rounded=1;whiteSpace=wrap;html=1;" parent="EWJrujR4eEeGzNGpfqsX-22" vertex="1">
          <mxGeometry x="170" y="239.9973170731707" width="150" height="68.29268292682927" as="geometry" />
        </mxCell>
        <mxCell id="EWJrujR4eEeGzNGpfqsX-35" value="ether1" style="rounded=1;whiteSpace=wrap;html=1;" parent="EWJrujR4eEeGzNGpfqsX-22" vertex="1">
          <mxGeometry x="45" y="212.68" width="60" height="27.32" as="geometry" />
        </mxCell>
        <mxCell id="EWJrujR4eEeGzNGpfqsX-36" value="ether1" style="rounded=1;whiteSpace=wrap;html=1;" parent="EWJrujR4eEeGzNGpfqsX-22" vertex="1">
          <mxGeometry x="215" y="212.68" width="60" height="27.32" as="geometry" />
        </mxCell>
        <mxCell id="TltHTOF5UY6wrQ0CbbNr-6" value="vlan10" style="rounded=1;whiteSpace=wrap;html=1;" vertex="1" parent="EWJrujR4eEeGzNGpfqsX-22">
          <mxGeometry x="45" y="240" width="60" height="27.32" as="geometry" />
        </mxCell>
        <mxCell id="TltHTOF5UY6wrQ0CbbNr-7" value="vlan10" style="rounded=1;whiteSpace=wrap;html=1;" vertex="1" parent="EWJrujR4eEeGzNGpfqsX-22">
          <mxGeometry x="215" y="240" width="60" height="27.32" as="geometry" />
        </mxCell>
        <mxCell id="TltHTOF5UY6wrQ0CbbNr-1" value="vlan10" style="rounded=1;whiteSpace=wrap;html=1;" vertex="1" parent="EWJrujR4eEeGzNGpfqsX-22">
          <mxGeometry x="118.68" y="53.09" width="92.65" height="26.91" as="geometry" />
        </mxCell>
        <mxCell id="EWJrujR4eEeGzNGpfqsX-38" style="edgeStyle=orthogonalEdgeStyle;rounded=1;orthogonalLoop=1;jettySize=auto;html=1;strokeColor=#66FF66;startArrow=oval;startFill=1;elbow=vertical;flowAnimation=1;endArrow=oval;endFill=1;exitX=0.5;exitY=1;exitDx=0;exitDy=0;" parent="EWJrujR4eEeGzNGpfqsX-22" source="EWJrujR4eEeGzNGpfqsX-35" target="TltHTOF5UY6wrQ0CbbNr-7" edge="1">
          <mxGeometry relative="1" as="geometry">
            <Array as="points">
              <mxPoint x="75" y="95" />
              <mxPoint x="126" y="95" />
              <mxPoint x="126" y="75" />
              <mxPoint x="201" y="75" />
              <mxPoint x="201" y="95" />
              <mxPoint x="246" y="95" />
            </Array>
            <mxPoint x="106" y="175" as="sourcePoint" />
          </mxGeometry>
        </mxCell>
        <mxCell id="EWJrujR4eEeGzNGpfqsX-39" value="&lt;div&gt;bridge port - ingress (PVID: tag untagged ingress)&lt;/div&gt;&lt;div&gt;bridge vlan - egress (vlan-ids: push single vlan-id)&lt;br&gt;&lt;/div&gt;" style="text;html=1;align=left;verticalAlign=middle;whiteSpace=wrap;rounded=0;" parent="EWJrujR4eEeGzNGpfqsX-22" vertex="1">
          <mxGeometry x="26" y="5" width="280" height="40" as="geometry" />
        </mxCell>
      </root>
    </mxGraphModel>
  </diagram>
</mxfile>
